<svg width="38" height="39" viewBox="0 0 38 39" fill="none" xmlns="http://www.w3.org/2000/svg">
<path d="M25 19.5C25 20.6867 24.6481 21.8467 23.9888 22.8334C23.3295 23.8201 22.3925 24.5892 21.2961 25.0433C20.1997 25.4974 18.9933 25.6162 17.8295 25.3847C16.6656 25.1532 15.5965 24.5818 14.7574 23.7426C13.9182 22.9035 13.3468 21.8344 13.1153 20.6705C12.8838 19.5067 13.0026 18.3003 13.4567 17.2039C13.9108 16.1075 14.6799 15.1705 15.6666 14.5112C16.6533 13.8519 17.8133 13.5 19 13.5C20.5907 13.5018 22.1158 14.1346 23.2406 15.2594C24.3654 16.3842 24.9982 17.9093 25 19.5ZM37.75 11.25V27.75C37.7468 30.5338 36.6396 33.2027 34.6711 35.1711C32.7027 37.1396 30.0338 38.2468 27.25 38.25H10.75C7.9662 38.2468 5.29733 37.1396 3.32889 35.1711C1.36044 33.2027 0.253176 30.5338 0.25 27.75V11.25C0.253176 8.4662 1.36044 5.79733 3.32889 3.82889C5.29733 1.86044 7.9662 0.753176 10.75 0.75H27.25C30.0338 0.753176 32.7027 1.86044 34.6711 3.82889C36.6396 5.79733 37.7468 8.4662 37.75 11.25ZM28 19.5C28 17.72 27.4722 15.9799 26.4832 14.4999C25.4943 13.0198 24.0887 11.8663 22.4442 11.1851C20.7996 10.5039 18.99 10.3257 17.2442 10.6729C15.4984 11.0202 13.8947 11.8774 12.636 13.136C11.3774 14.3947 10.5202 15.9984 10.1729 17.7442C9.82567 19.49 10.0039 21.2996 10.6851 22.9442C11.3663 24.5887 12.5198 25.9943 13.9999 26.9832C15.4799 27.9722 17.22 28.5 19 28.5C21.3861 28.4973 23.6738 27.5482 25.361 25.861C27.0482 24.1738 27.9973 21.8861 28 19.5ZM31 9.75C31 9.30499 30.868 8.86998 30.6208 8.49997C30.3736 8.12996 30.0222 7.84157 29.611 7.67127C29.1999 7.50097 28.7475 7.45642 28.311 7.54323C27.8746 7.63005 27.4737 7.84434 27.159 8.15901C26.8443 8.47368 26.63 8.87459 26.5432 9.31105C26.4564 9.7475 26.501 10.1999 26.6713 10.611C26.8416 11.0222 27.13 11.3736 27.5 11.6208C27.87 11.868 28.305 12 28.75 12C29.3467 12 29.919 11.7629 30.341 11.341C30.7629 10.919 31 10.3467 31 9.75Z" fill="#25282B"/>
</svg>
